<svg width="20" height="21" viewBox="0 0 20 21" fill="none" xmlns="http://www.w3.org/2000/svg">
<path d="M19.2451 9.02358L11.0877 9.02319C10.7275 9.02319 10.4355 9.31514 10.4355 9.67537V12.2814C10.4355 12.6416 10.7275 12.9336 11.0877 12.9336H15.6814C15.1784 14.2391 14.2395 15.3324 13.0417 16.0271L15.0005 19.418C18.1426 17.6007 20.0002 14.4121 20.0002 10.8427C20.0002 10.3345 19.9627 9.97115 19.8878 9.56205C19.8309 9.25124 19.561 9.02358 19.2451 9.02358Z" fill="#167EE6"/>
<path d="M10 16.8492C7.75197 16.8492 5.78943 15.6209 4.73539 13.8032L1.34473 15.7577C3.07021 18.7483 6.3026 20.7623 10 20.7623C11.8139 20.7623 13.5254 20.2739 14.9998 19.4227V19.4181L13.041 16.0271C12.145 16.5468 11.1082 16.8492 10 16.8492Z" fill="#12B347"/>
<path d="M14.9997 19.4225V19.4178L13.041 16.0269C12.145 16.5465 11.1083 16.849 10 16.849V20.762C11.8138 20.762 13.5254 20.2736 14.9997 19.4225Z" fill="#0F993E"/>
<path d="M3.91282 10.7621C3.91282 9.65399 4.21522 8.61724 4.73476 7.72128L1.3441 5.76685C0.488331 7.23663 0 8.94357 0 10.7621C0 12.5807 0.488331 14.2877 1.3441 15.7574L4.73476 13.803C4.21522 12.907 3.91282 11.8703 3.91282 10.7621Z" fill="#FFD500"/>
<path d="M10 4.67521C11.466 4.67521 12.8126 5.19614 13.8644 6.06266C14.1238 6.27641 14.501 6.26098 14.7386 6.02328L16.585 4.17682C16.8547 3.90713 16.8355 3.46569 16.5474 3.21577C14.7852 1.68692 12.4924 0.762207 10 0.762207C6.3026 0.762207 3.07021 2.77613 1.34473 5.7668L4.73539 7.72123C5.78943 5.90356 7.75197 4.67521 10 4.67521Z" fill="#FF4B26"/>
<path d="M13.8643 6.06266C14.1238 6.27641 14.501 6.26098 14.7386 6.02328L16.585 4.17682C16.8546 3.90713 16.8354 3.46569 16.5474 3.21577C14.7852 1.68688 12.4923 0.762207 10 0.762207V4.67521C11.4659 4.67521 12.8125 5.19614 13.8643 6.06266Z" fill="#D93F21"/>
</svg>
